<svg id="Layer_1" data-name="Layer 1" xmlns="http://www.w3.org/2000/svg" viewBox="0 0 71.53 72.67"><defs><style>.cls-1{fill:#c7b299;}.cls-2{fill:#f7931e;}.cls-2,.cls-3,.cls-4,.cls-5{stroke:#000;stroke-miterlimit:10;}.cls-3{fill:#b3b3b3;}.cls-4{fill:#ff94d3;}.cls-5,.cls-6{fill:none;}</style></defs><path class="cls-1" d="M150.38,171.82a8.14,8.14,0,0,0-1.87,2,1.52,1.52,0,0,0,2.05,2.06,20.66,20.66,0,0,0,4-2.73c.94-.74,2.21-1.66,2.29-3a1.51,1.51,0,0,0-1.9-1.44c-.87.27-1.67.7-2.53,1s-1.67.54-2.52.77c-1.84.49-3.6,1.08-5.38,1.73a11.19,11.19,0,0,0-4.39,2.65,9.49,9.49,0,0,1-1.29,1.39,16.39,16.39,0,0,1-2,1.4l.76-.2h-.18l.76.2-.17-.1.54.54c.28.53.1.18.11-.11s0-.39,0-.58c0-.56.11-1.08.19-1.63a6.84,6.84,0,0,1,1-3.18c.67-1,1.22-2,1.81-3.06.34-.58.64-1.18,1-1.76.1-.17.22-.32.31-.49a1,1,0,0,0,.15-.31c.15-.4.19-.48.13-.24h-2.13c-.34-.27-.19-.57-.18,0,0,.25,0,.5,0,.75a24.29,24.29,0,0,1,0,2.56,4.65,4.65,0,0,1-.5,1.79,4.91,4.91,0,0,0-.74,1.91c-.13,1.41,1.68,1.83,2.56,1.06s1.91-1.49,2.83-2.27c.75-.64,1.53-1.41,2.21-2h-2.12c-.21-.61-.3-.72-.26-.33,0,.14,0,.28,0,.41s0,.48-.05.72c-.09.75-.37,1.44-.4,2.21a1.52,1.52,0,0,0,2.8.76c.15-.22.27-.49.42-.69a1.54,1.54,0,0,0,0-2.12,1.5,1.5,0,0,0-2.12,0c-.32.42-.59.85-.89,1.29l2.79.76c0-.54.28-1.06.35-1.6,0-.37.06-.75.09-1.12a3.13,3.13,0,0,0-.61-2.41,1.52,1.52,0,0,0-2.12,0c-.19.17-.3.4-.48.58.21-.21-.39.26-.43.29-.45.38-.86.78-1.31,1.16-.92.78-1.9,1.48-2.82,2.27l2.56,1.06c0,.36,0,.09.15-.1s.16-.25.23-.38a6.3,6.3,0,0,0,.49-1.17,10.29,10.29,0,0,0,.41-3.07c0-1.17.33-3.56-.72-4.41a1.56,1.56,0,0,0-2.13,0,4.11,4.11,0,0,0-.8,1.25c-.32.58-.64,1.17-1,1.74-.68,1.17-1.3,2.36-2.06,3.48a7.67,7.67,0,0,0-1.33,3.72c-.09,1.1-.29,2.18-.32,3.29s.55,2.41,1.94,2.35a3.22,3.22,0,0,0,1.61-.77l1.59-1.11c.95-.69,1.53-1.7,2.5-2.4a14,14,0,0,1,3.37-1.58c1.54-.58,3.14-1,4.72-1.39s2.9-1.16,4.4-1.62l-1.9-1.45v.14l.21-.76a8,8,0,0,1-1.93,1.71,17.11,17.11,0,0,1-3,2l2,2.05c.23-.5,1-1,1.4-1.42a1.5,1.5,0,0,0-2.12-2.12Z" transform="translate(-133.08 -114.81)"/><path class="cls-1" d="M142.5,166.81c-.22-1.08-.86-2.54-2.21-2.41a1.53,1.53,0,0,0-1.45,1.9c.2,1.07.81,2,1,3.11a15.07,15.07,0,0,1,0,1.78c0,.68.12,1.35.13,2a1.5,1.5,0,0,0,3,0,8.22,8.22,0,0,1,.26-1.71,3.5,3.5,0,0,1,.23-.78c.11-.25.46-.52,0-.27l-.76.2c-.29,0,.19.3.36.46a7.64,7.64,0,0,0,.95.75,11.21,11.21,0,0,0,2.11,1l-.66-.39a7.8,7.8,0,0,0,1.32,1c.1.05.29.18.36.2s0,.46,0-.16l.2-.76-.06.12,2.06-.54c0,.14,0,.11-.12-.08L149,172c-.15-.16-.33-.29-.49-.43a4.59,4.59,0,0,1-.86-1.18A29.8,29.8,0,0,0,146,167.7c-.33-.43-.87-.69-1.17-1.09.24.33.4,0,.2-.15a.12.12,0,0,1,0-.14l-.13.36s.66-.29.87-.17a3.13,3.13,0,0,1,.83,1.08,11.59,11.59,0,0,0,1.76,2.4,11.18,11.18,0,0,1,1.62,2.19,6.56,6.56,0,0,0,.53.93c.13.16.16.13.22.29.18.45.15,1,.33,1.46a9.1,9.1,0,0,0,2,2.68l2.12-2.12a24.7,24.7,0,0,1-2.12-2.87l-2.36,1.81a15.43,15.43,0,0,1,1.3,1.79,5.71,5.71,0,0,0,.77,1c.18.18.48.34.6.56l.53-2c.07-.05.94-.24,1-.07,0,0-.23-.12-.26-.14-.24-.14-.46-.28-.68-.43-.41-.29-.6-.44-.92-.7a15.13,15.13,0,0,1-1.38-1.1c-.44-.47-.64-1.05-1.4-1.21a1.52,1.52,0,0,0-1.9,1.44,4.44,4.44,0,0,0,.68,2.21,9,9,0,0,0,.38.92c.17.08-.13-.12.17-.15l-.25.06c-.74,0-1.5.49-2.25.61a5,5,0,0,1-2.25,0c-1.12-.71-.33-3.1-.2-4.11s.18-1.83.29-2.74.35-2,.43-3a9.49,9.49,0,0,0-.64-5.22,6.14,6.14,0,0,0-3.62-3c-1.81-.59-3.24,1-3.3,2.74a5.29,5.29,0,0,0,2.17,4,10.26,10.26,0,0,0,2.38,1.47,14.39,14.39,0,0,1,2.68,1.14,7.37,7.37,0,0,1,1.63,2.08c.57.83,1.08,1.71,1.73,2.48,1.24,1.49,3.35-.65,2.12-2.12-.8-1-1.37-2.14-2.09-3.15a7,7,0,0,0-3.34-2.58,10.79,10.79,0,0,1-3.16-1.59c-.43-.35-1.59-1.41-.91-2l-.67.39c-.22-.09-.18-.06.12.07s.39.17.58.24.27.08.07,0a5.22,5.22,0,0,0,.39.43,2.81,2.81,0,0,1,.85,1.47,12.39,12.39,0,0,1-.18,4.29c-.28,1.65-.34,3.33-.61,5a7.83,7.83,0,0,0,.12,4.24A3.78,3.78,0,0,0,145,180.2a15.17,15.17,0,0,0,4.54-.67c1.24-.37,2.49-.79,2.8-2.22a3.72,3.72,0,0,0-.27-2.13c-.19-.5-.76-1.21-.75-1.74l-1.89,1.45.13,0-.66-.39a8.52,8.52,0,0,0,.54.76c.32.31.71.52,1,.8s.88.73,1.33,1.07c.93.7,2.39,1.86,3.58,1.08a1.55,1.55,0,0,0,.54-2.06c-.39-.69-1.08-1.13-1.53-1.79a21.12,21.12,0,0,0-1.61-2.15c-1.13-1.22-3.35.41-2.35,1.82a29.35,29.35,0,0,0,2.59,3.48c1.33,1.41,3.44-.71,2.12-2.12a8.32,8.32,0,0,1-1.24-1.48,15.81,15.81,0,0,1-.44-1.74,7.4,7.4,0,0,0-.69-1c-.13-.22-.18-.46-.32-.67-.36-.56-.79-1.08-1.18-1.61s-.89-1-1.32-1.48a12.18,12.18,0,0,1-.92-1.57,4.44,4.44,0,0,0-3.26-2.42c-1.38-.07-3.2.74-3.64,2.14a3.44,3.44,0,0,0,1,3.51,10.73,10.73,0,0,1,2.06,3,6,6,0,0,0,1.18,1.53,7.06,7.06,0,0,0,1.48,1.31,1.53,1.53,0,0,0,2.06-.54,2.65,2.65,0,0,0-1.37-3.38,18.53,18.53,0,0,0-1.85-1.16,5.58,5.58,0,0,1-1.69-1.05c-1.21-1.12-2.89-1.77-3.93,0a9,9,0,0,0-1.13,4.45h3c0-.69-.13-1.36-.13-2a17.58,17.58,0,0,0-.07-2.18c-.18-1.23-.8-2.3-1-3.51l-1.45,1.9-.17,0-.67-.39c-.16-.16,0,0,0,.14s.09.32.12.48c.39,1.89,3.29,1.09,2.89-.8Z" transform="translate(-133.08 -114.81)"/><path class="cls-1" d="M141.19,170.06a1.5,1.5,0,0,0,0-3,1.5,1.5,0,0,0,0,3Z" transform="translate(-133.08 -114.81)"/><path class="cls-1" d="M155.2,176c-1.36-1.24-3.34-1.54-4.59-3a6.23,6.23,0,0,1-1.33-2.33,8.61,8.61,0,0,0-1.1-2.79,8.17,8.17,0,0,0-4.2-3.68,6.13,6.13,0,0,1-2.4-1.86,11.3,11.3,0,0,1-1.73-1.81,1.53,1.53,0,0,0-2.75.36,11.28,11.28,0,0,0-.12,3.48,15.79,15.79,0,0,1-.47,3.75,41.6,41.6,0,0,1-1.76,7.47,4.21,4.21,0,0,0-.17,3.42,5.85,5.85,0,0,0,2.59,2.35,3.09,3.09,0,0,0,3.15,0,15.23,15.23,0,0,1,4.3-.82c1.28-.15,2.57-.2,3.84-.41a19.27,19.27,0,0,0,3.16-.89,6.4,6.4,0,0,0,2.25-1.07,1.85,1.85,0,0,0,0-2.79c-1.4-1.38-3.9-1.34-5.63-.88-2.45.64-5-.26-7.39.94-.42.21-.81.5-1.21.75-.19.12-.44.21-.62.35l-.26.08c.7.64,1,.72.79.24.23-1,.49-2,.81-3.06.42-1.37.67-2.8,1.2-4.14a33,33,0,0,0,1.59-4.18l-2.95-.4a15.47,15.47,0,0,1-.66,3.19c-.22,1.07-.54,2.11-.79,3.18-.39,1.67-.41,4.42,1.65,5.07s2.62-1.43,3-2.85a23.6,23.6,0,0,0,.59-2.62c0-.26.06-.55.1-.79a3.33,3.33,0,0,0,.08-.39c0-.42.33.11-.44.25l-1.46-.39a3.19,3.19,0,0,1,.59,1.92c.11,1.14.28,2.29.32,3.43a1.5,1.5,0,0,0,3,0,21.88,21.88,0,0,0,0-3.62c0-.32-.14-.63-.21-.94a2.66,2.66,0,0,0-.1-.49c-.13-.23.17-.31-.13,0l-1.06.44c-.54-.06-.39-.29-.16.22s.27.75.43,1.11a11.22,11.22,0,0,1,1,2.69,1.51,1.51,0,0,0,1.84,1,1.54,1.54,0,0,0,1.05-1.85,18.57,18.57,0,0,0-1.45-3.8c-.46-1.2-1.26-2.45-2.73-2.42-1.76,0-1.94,2.13-1.7,3.41a10,10,0,0,1,.29,1.62c0,.86,0,1.73-.05,2.59h3c0-1-.23-1.89-.28-2.85a13.92,13.92,0,0,0-.26-2.13c-.31-1.41-1.39-3.68-3.2-2.7-1.23.66-1.21,2.14-1.41,3.33-.11.69-.33,1.37-.5,2q-.09.41-.21.81c0,.11-.12.32-.13.39s-.45.2.23-.17l.76-.2c.52.43.66.47.43.13a1.21,1.21,0,0,0,0-.18,2.59,2.59,0,0,1,0-1c.14-.76.42-1.49.59-2.23s.36-1.74.59-2.6a9.87,9.87,0,0,0,.45-2.64,1.51,1.51,0,0,0-2.95-.4,31,31,0,0,1-1.59,4.18c-.56,1.44-.84,3-1.29,4.47-.58,1.87-1.86,5.8,1.21,6.23a4.71,4.71,0,0,0,3.1-1.13,5.79,5.79,0,0,1,3.73-.65,12.61,12.61,0,0,0,2.38-.1c.69-.11,1.35-.39,2-.48a3.76,3.76,0,0,1,.75,0c-.3,0,.37.07.44.09s.4.15.59.17c.46,0-.24.37-.12-.6l.21-.75c.18-.33.17-.17-.14-.05l-.51.19-1,.35a18.11,18.11,0,0,1-4.74.87,32.42,32.42,0,0,0-4.91.69,6.19,6.19,0,0,0-1.05.36c-.24.1-1,.28-.46.4a4.44,4.44,0,0,1-1.38-.9c-.65-.55.42-2.28.61-3.12.35-1.49.86-3,1.07-4.49s.6-3,.76-4.55c.14-1.36-.3-2.82.05-4.14l-2.75.36A9.76,9.76,0,0,0,139,164a24.92,24.92,0,0,0,2.42,2.29c.8.59,1.81.68,2.58,1.27a7.34,7.34,0,0,1,1.78,2.1,22.33,22.33,0,0,1,1,2.81,11.66,11.66,0,0,0,1.65,2.58,10.85,10.85,0,0,0,2.43,1.87,15.41,15.41,0,0,1,2.24,1.19c1.43,1.3,3.55-.82,2.13-2.12Z" transform="translate(-133.08 -114.81)"/><path class="cls-2" d="M172.16,125.56l-34.29,34.29a7.64,7.64,0,0,1,3.51,2.14,8.39,8.39,0,0,1,2.14,3.52l34.3-34.3Z" transform="translate(-133.08 -114.81)"/><path class="cls-3" d="M192.72,143.89h0a1.7,1.7,0,0,1-2.38-.16L172,125.41a1.71,1.71,0,0,1-.15-2.38h0a1.7,1.7,0,0,1,2.39.15l18.32,18.32A1.7,1.7,0,0,1,192.72,143.89Z" transform="translate(-133.08 -114.81)"/><path class="cls-4" d="M181.28,114.32h9a6,6,0,0,1,6,6v14a6,6,0,0,1-6,6h-9a0,0,0,0,1,0,0v-26A0,0,0,0,1,181.28,114.32Z" transform="translate(-167.82 55.97) rotate(-45)"/><path d="M138,160.3,137,166l-1.1,5.65-1.14,5.64-.58,2.82-.29,1.41c-.13.46-.05,1-.58,1.35h0c-.35-.55-.09-1,0-1.47l.24-1.42.49-2.84,1-5.67,1-5.66,1.08-5.66Z" transform="translate(-133.08 -114.81)"/><path d="M156,179.08c-3.75.79-7.53,1.49-11.3,2.18-1.89.35-3.78.66-5.67,1l-2.84.49-1.42.24c-.47.06-.92.27-1.49-.15.38-.59.87-.56,1.34-.67l1.41-.29,2.82-.58c1.88-.37,3.76-.77,5.64-1.13,3.77-.72,7.54-1.44,11.33-2.06Z" transform="translate(-133.08 -114.81)"/><path class="cls-2" d="M184.89,138.28l-34.29,34.3a7.64,7.64,0,0,1,3.51,2.14,8.42,8.42,0,0,1,2.14,3.52l34.3-34.3Z" transform="translate(-133.08 -114.81)"/><path class="cls-2" d="M178.53,131.92l-34.3,34.3a7.54,7.54,0,0,1,3.52,2.14,8.47,8.47,0,0,1,2.14,3.51l34.29-34.29Z" transform="translate(-133.08 -114.81)"/><path class="cls-5" d="M134.69,177.18a5,5,0,0,1,2.82,1.41,5.1,5.1,0,0,1,1.42,2.83" transform="translate(-133.08 -114.81)"/><path d="M138.17,179.45a2.43,2.43,0,0,0-.26-.29,2.06,2.06,0,0,0-.31-.28v0a1.38,1.38,0,0,0-.08-.29,3.44,3.44,0,0,0-.21-.49,2.69,2.69,0,0,0-.2-.27,1.56,1.56,0,0,0-.23-.28,2.87,2.87,0,0,0-.44-.34,1.08,1.08,0,0,0-.55-.17,1.1,1.1,0,0,0-.57,0,1.75,1.75,0,0,0-.93.71,1.51,1.51,0,0,0-.14,1.12v0a2.63,2.63,0,0,0,.56,3.75,2.2,2.2,0,0,0,1.31-.52,1.57,1.57,0,0,0,.17-.21,1,1,0,0,0,.16-.12,1.4,1.4,0,0,0,2-.05A1.46,1.46,0,0,0,138.17,179.45Z" transform="translate(-133.08 -114.81)"/><path d="M133.51,183.45c6.74.55,13.49,1.08,20.23,1.52s13.5.79,20.23.78a87.13,87.13,0,0,0,10-.52,15.31,15.31,0,0,0,4.58-1.12,2.59,2.59,0,0,0,.74-.51.64.64,0,0,0,.2-.43,4.2,4.2,0,0,0-.82-1.75,9.15,9.15,0,0,1-1.31-2.55,2.57,2.57,0,0,1,.29-2,3.06,3.06,0,0,1,1.48-1.2,8.22,8.22,0,0,1,2.9-.51,23.5,23.5,0,0,1,2.67.09,43.32,43.32,0,0,1,5.14.8q1.26.28,2.49.63c.81.28,1.71.24,2.27,1.45l-.22.8c-1.07.77-1.82.31-2.65.18l-2.44-.53c-1.63-.36-3.25-.68-4.86-.92a19.89,19.89,0,0,0-2.39-.23,6.29,6.29,0,0,0-2.09.26,1,1,0,0,0-.5.31c-.06.09-.08.16,0,.41a7.74,7.74,0,0,0,1,1.92,13.38,13.38,0,0,1,.69,1.21,3.93,3.93,0,0,1,.43,1.67,2.7,2.7,0,0,1-.77,1.84,4.85,4.85,0,0,1-1.34.93,17.4,17.4,0,0,1-5.25,1.24,76.61,76.61,0,0,1-10.26.23c-6.8-.21-13.55-.79-20.29-1.45s-13.46-1.5-20.17-2.42Z" transform="translate(-133.08 -114.81)"/><line class="cls-6" x1="7.92" y1="59.19" x2="8.92" y2="60.19"/><line class="cls-5" x1="0.42" y1="66.69" x2="1.42" y2="67.69"/></svg>